<svg width="14" height="14" fill="none" xmlns="http://www.w3.org/2000/svg"><path d="M7 14A7 7 0 107 0a7 7 0 000 14z" fill="#4D69E9"/><path d="M7.48 4.966a.72.72 0 00-.273.984.72.72 0 00.985.273.72.72 0 00.273-.984.71.71 0 00-.984-.273zM6.793 3.73a.514.514 0 00-.186.7c.142.24.448.328.7.186a.505.505 0 00.186-.7.527.527 0 00-.7-.186zm0 5.698a.514.514 0 00-.186.7c.142.24.448.328.7.186a.514.514 0 00.186-.7.527.527 0 00-.7-.186zm2.45-4.287a.514.514 0 00-.186.7c.142.24.448.328.7.186a.505.505 0 00.186-.7.524.524 0 00-.7-.186zM4.287 7.995a.514.514 0 00-.186.7c.142.241.449.328.7.186a.514.514 0 00.186-.7.52.52 0 00-.7-.186zm-.044-2.854a.514.514 0 00-.186.7.505.505 0 00.7.186.514.514 0 00.186-.7.524.524 0 00-.7-.186zm4.999 2.822a.514.514 0 00-.186.7c.142.24.448.328.7.185a.514.514 0 00.186-.7.514.514 0 00-.7-.185zm1.301-1.302a.41.41 0 00.405.71.41.41 0 00.153-.557.415.415 0 00-.558-.153zm-7.48 0a.41.41 0 00.405.71c.196-.108.25-.371.141-.557a.397.397 0 00-.547-.153zm5.446-2.877c0 .22.175.405.394.416.218.011.404-.175.415-.394a.419.419 0 00-.393-.415.404.404 0 00-.416.393zm-3.828 6.432c0 .218.175.404.394.415a.419.419 0 00.415-.393.419.419 0 00-.394-.416c-.218-.011-.404.175-.415.394zm.23-6.082c.196.11.437.044.557-.153a.413.413 0 00-.153-.558.413.413 0 00-.558.154.41.41 0 00.154.557zm3.773 6.454c.197.109.438.043.558-.154a.413.413 0 00-.153-.557.413.413 0 00-.558.153.41.41 0 00.153.558zm-.372-4.179a.72.72 0 00-.273.985.72.72 0 00.984.273.722.722 0 10-.71-1.258zm-.831 1.444a.72.72 0 00-.274.985.72.72 0 00.985.273.72.72 0 00.273-.984.72.72 0 00-.984-.274zm-.963-2.887a.72.72 0 01.274.984.72.72 0 01-.985.273.72.72 0 01-.273-.984.71.71 0 01.984-.273zm-.83 1.443a.72.72 0 01.273.985.72.72 0 01-.985.273.722.722 0 11.71-1.258zm.83 1.444a.72.72 0 01.274.985.72.72 0 01-.985.273.72.72 0 01-.273-.984.72.72 0 01.984-.274zm.799-5.392A.317.317 0 117 2.144c.164 0 .317.142.317.317zm0 9.078A.317.317 0 117 11.222c.164 0 .317.142.317.317zM3.204 4.473a.322.322 0 01.12.438.322.322 0 01-.437.12.322.322 0 01-.12-.437.322.322 0 01.437-.12zM11.09 8.97a.322.322 0 01.12.437.322.322 0 01-.437.12.322.322 0 01-.12-.437.322.322 0 01.437-.12zm-8.203 0a.322.322 0 01.438.12.322.322 0 01-.12.438.322.322 0 01-.438-.12.322.322 0 01.12-.438zm7.886-4.496a.322.322 0 01.438.12.322.322 0 01-.12.438.322.322 0 01-.438-.12.322.322 0 01.12-.438zM4.703 2.67c0 .142-.12.262-.263.262a.266.266 0 01-.262-.262c0-.142.12-.263.262-.263a.26.26 0 01.263.263zm5.119 8.673c0 .142-.12.263-.263.263a.266.266 0 01-.262-.263c0-.142.12-.262.262-.262.142 0 .263.12.263.262zm-.154-8.454a.277.277 0 01-.36-.099c-.077-.12-.022-.284.098-.36a.277.277 0 01.36.098.255.255 0 01-.098.36zm-5.086 8.695a.277.277 0 01-.36-.099.277.277 0 01.098-.36.277.277 0 01.36.098c.077.131.023.284-.098.36zM11.9 7.219a.277.277 0 01-.099-.361.277.277 0 01.361-.099c.131.066.164.23.099.361-.077.132-.23.164-.361.099zM1.826 7.24a.277.277 0 01-.098-.361.277.277 0 01.36-.099c.121.077.165.23.1.361a.257.257 0 01-.362.099z" fill="#fff"/></svg>