<svg width="14" height="14" fill="none" xmlns="http://www.w3.org/2000/svg"><path d="M7 14A7 7 0 107 0a7 7 0 000 14z" fill="#DD8A26"/><path d="M10.368 8.498c.011-.798-.339-1.52-1.192-1.826.602-.284.952-.875.963-1.597.022-.842-.449-1.498-1.127-1.76a2.629 2.629 0 00-1.006-.209l.022-1.148c-.503-.011-.777-.022-.777-.022s0 .383-.022 1.137l-.776-.01.022-1.138c-.514-.022-.777-.01-.777-.01s0 .382-.022 1.137l-1.52-.011c0 .7-.033 1.05-.033 1.05.153.01.306.022.47.01.23.012.405.197.405.427l-.066 4.55a.423.423 0 01-.426.405l-.46-.011c0 .7-.032 1.05-.032 1.05s.503.01 1.52.044l-.022 1.137c.503.011.777.022.777.022s0-.383.022-1.137l.798.01-.022 1.138c.503.01.777.022.777.022s0-.383.022-1.138c.317.011.634-.021.94-.098a2.195 2.195 0 001.542-2.024zM6.475 4.145l1.17.011c.219 0 .437.033.645.12.296.165.438.504.427.865-.022.601-.383.995-.94.973l-1.324-.033.022-1.936zM8.3 9.417c-.175.066-.35.099-.536.077l-1.4-.033.044-2.242 1.455.044c.678 0 1.082.47 1.05 1.126 0 .46-.23.875-.613 1.028z" fill="#fff"/></svg>