<svg width="20" height="20" fill="none" xmlns="http://www.w3.org/2000/svg"><g opacity=".5" clip-path="url(#clip0)"><path d="M10 .75a9.253 9.253 0 019.252 9.252c0 5.107-4.143 9.248-9.252 9.248-5.108 0-9.25-4.14-9.25-9.248C.75 4.892 4.892.75 10 .75z" stroke="#fff" stroke-width="1.5"/><path fill-rule="evenodd" clip-rule="evenodd" d="M13.003 10.002c-.552 0-1-.896-1-2 0-1.106.448-2.001 1-2.001s1 .895 1 2.001c0 1.104-.448 2-1 2zm-6.001 0c-.552 0-.998-.896-.998-2 0-1.106.446-2.001.998-2.001s1.002.895 1.002 2.001c0 1.104-.45 2-1.002 2z" fill="#fff"/><path d="M14.003 13.001S12.989 15 10.002 15c-2.986 0-3.998-1.999-3.998-1.999" stroke="#fff" stroke-width="1.5" stroke-linecap="round"/></g><defs><clipPath id="clip0"><path fill="#fff" d="M0 0h20v20H0z"/></clipPath></defs></svg>